<?xml version="1.0" standalone="no"?>
<!DOCTYPE svg PUBLIC "-//W3C//DTD SVG 20010904//EN"
 "http://www.w3.org/TR/2001/REC-SVG-20010904/DTD/svg10.dtd">
<svg version="1.0" xmlns="http://www.w3.org/2000/svg"
 width="1024.000000pt" height="1024.000000pt" viewBox="0 0 1024.000000 1024.000000"
 preserveAspectRatio="xMidYMid meet">
<metadata>
Created by potrace 1.14, written by Peter Selinger 2001-2017
</metadata>
<g transform="translate(0.000000,1024.000000) scale(0.100000,-0.100000)"
fill="#000000" stroke="none">
<path d="M4828 10235 c-1 -1 -48 -6 -103 -9 -56 -4 -112 -8 -125 -10 -14 -3
-52 -7 -85 -10 -33 -3 -71 -8 -84 -11 -12 -2 -42 -7 -65 -9 -22 -3 -52 -8 -66
-11 -14 -2 -36 -7 -50 -9 -123 -21 -290 -62 -291 -70 0 -6 -2 -1453 -3 -3216
-1 -2481 -5 -3211 -14 -3233 -23 -54 -64 -97 -118 -123 l-54 -26 -263 -1
c-176 0 -274 4 -298 12 -46 15 -95 66 -107 112 -6 23 -10 1143 -10 3095 -1
1683 -1 3071 -1 3086 -1 34 10 38 -221 -74 -150 -73 -357 -187 -474 -261 -241
-152 -485 -335 -701 -527 -112 -100 -375 -371 -470 -485 -22 -26 -45 -53 -50
-59 -17 -18 -148 -188 -184 -236 -193 -265 -323 -482 -471 -785 -183 -373
-303 -713 -394 -1115 -19 -85 -37 -171 -40 -190 -2 -19 -7 -46 -10 -60 -6 -28
-9 -49 -30 -205 -35 -252 -41 -351 -41 -675 0 -245 8 -438 20 -510 2 -14 6
-50 9 -80 9 -92 16 -138 47 -315 26 -150 99 -474 116 -515 3 -8 7 -22 9 -30
14 -69 144 -431 199 -555 7 -16 27 -64 45 -105 32 -73 163 -334 209 -415 307
-540 706 -1018 1186 -1420 80 -67 76 -64 190 -150 55 -41 105 -79 110 -83 30
-24 237 -160 317 -207 51 -31 100 -60 108 -65 97 -61 426 -224 565 -280 44
-17 89 -36 100 -41 46 -21 239 -89 336 -118 57 -18 115 -37 129 -42 14 -5 34
-11 45 -13 11 -2 74 -18 140 -35 66 -16 136 -33 155 -36 19 -3 53 -10 75 -15
22 -5 54 -11 70 -14 17 -3 71 -12 120 -20 50 -8 108 -17 130 -20 22 -3 63 -8
90 -11 192 -23 311 -29 595 -30 252 0 366 4 530 20 117 12 309 40 410 60 14 2
41 7 60 10 19 3 42 8 50 10 8 2 31 7 50 10 19 3 62 13 95 21 33 9 68 18 79 20
105 20 456 135 644 210 417 167 887 434 1212 691 54 42 201 163 229 188 381
337 671 671 944 1087 42 65 77 119 77 121 0 3 25 47 56 98 198 329 415 857
518 1259 35 135 79 340 90 415 4 22 11 65 16 95 5 30 11 75 14 100 3 25 8 65
11 90 3 25 7 63 10 85 34 287 26 877 -15 1155 -5 36 -12 85 -15 110 -6 43 -19
126 -30 180 -3 14 -8 41 -11 60 -3 19 -26 116 -50 215 -119 494 -310 963 -567
1395 -146 247 -336 512 -517 724 -177 207 -475 497 -673 656 -11 8 -24 20 -31
26 -29 27 -257 192 -368 266 -153 102 -156 104 -333 205 -222 127 -559 280
-815 368 -193 68 -524 159 -650 180 -19 3 -42 8 -50 10 -8 2 -31 7 -50 10 -19
3 -42 8 -50 10 -18 5 -46 9 -200 29 -137 18 -201 26 -272 32 -63 5 -685 14
-690 9z m1077 -3485 c49 -16 104 -66 126 -115 18 -38 19 -127 19 -2023 0
-1933 0 -1984 -19 -2020 -27 -53 -57 -82 -109 -104 -41 -18 -67 -20 -317 -20
-261 0 -274 1 -315 22 -52 27 -74 50 -102 109 -20 43 -20 53 -20 2015 0 1872
1 1973 18 2016 29 73 92 118 179 129 91 11 499 4 540 -9z m-984 -338 c31 -22
54 -50 70 -83 l23 -50 -1 -1667 c0 -1830 4 -1699 -59 -1766 -59 -62 -85 -67
-385 -67 -256 0 -274 2 -315 22 -52 25 -97 76 -113 128 -17 57 -16 3318 1
3375 15 50 84 121 130 135 19 6 154 9 318 8 l285 -2 46 -33z m2022 -284 c54
-16 119 -81 135 -134 16 -53 18 -2728 2 -2785 -17 -61 -52 -102 -109 -131
l-55 -28 -260 0 c-158 0 -277 4 -301 11 -53 15 -128 92 -141 145 -6 24 -9 564
-8 1404 1 1500 -3 1400 61 1464 62 63 72 64 366 66 189 0 280 -3 310 -12z"/>
</g>
</svg>
