<svg xmlns="http://www.w3.org/2000/svg">
  <symbol id="anchor" width="22" height="22" viewBox="0 0 22 22" fill="none">
    <path d="M11 7C12.6569 7 14 5.65685 14 4C14 2.34315 12.6569 1 11 1C9.34315 1 8 2.34315 8 4C8 5.65685 9.34315 7 11 7Z" stroke="currentColor" stroke-width="2" stroke-linecap="round" stroke-linejoin="round"/>
    <path d="M11 21V7" stroke="currentColor" stroke-width="2" stroke-linecap="round" stroke-linejoin="round"/>
    <path d="M4 11H1C1 13.6522 2.05357 16.1957 3.92893 18.0711C5.8043 19.9464 8.34784 21 11 21C13.6522 21 16.1957 19.9464 18.0711 18.0711C19.9464 16.1957 21 13.6522 21 11H18" stroke="currentColor" stroke-width="2" stroke-linecap="round" stroke-linejoin="round"/>
  </symbol>
  <symbol id="battery" width="24" height="14" viewBox="0 0 24 14" fill="none">
    <path d="M17 1H3C1.89543 1 1 1.89543 1 3V11C1 12.1046 1.89543 13 3 13H17C18.1046 13 19 12.1046 19 11V3C19 1.89543 18.1046 1 17 1Z" stroke="currentColor" stroke-width="2" stroke-linecap="round" stroke-linejoin="round"/>
    <path d="M23 8V6" stroke="currentColor" stroke-width="2" stroke-linecap="round" stroke-linejoin="round"/>
  </symbol>
  <symbol id="chrome" width="22" height="22" viewBox="0 0 22 22" fill="none">
    <path d="M11 21C16.5228 21 21 16.5228 21 11C21 5.47715 16.5228 1 11 1C5.47715 1 1 5.47715 1 11C1 16.5228 5.47715 21 11 21Z" stroke="currentColor" stroke-width="2" stroke-linecap="round" stroke-linejoin="round"/>
    <path d="M11 15C13.2091 15 15 13.2091 15 11C15 8.79086 13.2091 7 11 7C8.79086 7 7 8.79086 7 11C7 13.2091 8.79086 15 11 15Z" stroke="currentColor" stroke-width="2" stroke-linecap="round" stroke-linejoin="round"/>
    <path d="M20.17 7H11" stroke="currentColor" stroke-width="2" stroke-linecap="round" stroke-linejoin="round"/>
    <path d="M2.95312 5.05957L7.54313 12.9996" stroke="currentColor" stroke-width="2" stroke-linecap="round" stroke-linejoin="round"/>
    <path d="M9.88281 20.94L14.4628 13" stroke="currentColor" stroke-width="2" stroke-linecap="round" stroke-linejoin="round"/>
  </symbol>
  <symbol id="arrow-right" width="14" height="14" viewBox="0 0 14 14" fill="none">
    <path d="M1 7L13 7" stroke="currentColor" stroke-width="2" stroke-linecap="round" stroke-linejoin="round"/>
    <path d="M7 1L13 7L7 13" stroke="currentColor" stroke-width="2" stroke-linecap="round" stroke-linejoin="round"/>
  </symbol>
  <symbol id="warning" width="22" height="19" viewBox="0 0 22 19" fill="none">
    <path d="M9.65273 2.53158L2.16657 15.0291C2.01223 15.2964 1.93056 15.5995 1.92969 15.9081C1.92883 16.2168 2.0088 16.5203 2.16165 16.7884C2.3145 17.0566 2.53489 17.2801 2.80092 17.4366C3.06694 17.5931 3.36931 17.6773 3.67795 17.6807H18.6503C18.9589 17.6773 19.2613 17.5931 19.5273 17.4366C19.7933 17.2801 20.0137 17.0566 20.1666 16.7884C20.3194 16.5203 20.3994 16.2168 20.3985 15.9081C20.3977 15.5995 20.316 15.2964 20.1616 15.0291L12.6755 2.53158C12.5179 2.27182 12.2961 2.05706 12.0313 1.90801C11.7666 1.75897 11.4679 1.68066 11.1641 1.68066C10.8603 1.68066 10.5616 1.75897 10.2969 1.90801C10.0321 2.05706 9.8103 2.27182 9.65273 2.53158V2.53158Z" stroke="currentColor" stroke-width="2" stroke-linecap="round" stroke-linejoin="round"/>
    <path d="M11.1641 7.07422V10.6096" stroke="currentColor" stroke-width="2" stroke-linecap="round" stroke-linejoin="round"/>
    <path d="M11.1641 14.145H11.1729" stroke="currentColor" stroke-width="2" stroke-linecap="round" stroke-linejoin="round"/>
  </symbol>
  <symbol id="close" width="12" height="12" viewBox="0 0 12 12" fill="none">
    <path d="M11 1L1 11" stroke="currentColor" stroke-width="2" stroke-linecap="round" stroke-linejoin="round"/>
    <path d="M1 1L11 11" stroke="currentColor" stroke-width="2" stroke-linecap="round" stroke-linejoin="round"/>
  </symbol>
  <symbol id="suitcase" width="18" height="16" viewBox="0 0 18 16" fill="none">
    <path d="M15 4.11133H2.55556C1.69645 4.11133 1 4.80777 1 5.66688V13.4447C1 14.3038 1.69645 15.0002 2.55556 15.0002H15C15.8591 15.0002 16.5556 14.3038 16.5556 13.4447V5.66688C16.5556 4.80777 15.8591 4.11133 15 4.11133Z" stroke="currentColor" stroke-width="2" stroke-linecap="round" stroke-linejoin="round"/>
    <path d="M11.8902 15V2.55556C11.8902 2.143 11.7263 1.74733 11.4346 1.45561C11.1429 1.16389 10.7472 1 10.3346 1H7.22352C6.81097 1 6.4153 1.16389 6.12358 1.45561C5.83186 1.74733 5.66797 2.143 5.66797 2.55556V15" stroke="currentColor" stroke-width="2" stroke-linecap="round" stroke-linejoin="round"/>
  </symbol>
  <symbol id="stack" width="17" height="17" viewBox="0 0 17 17" fill="none">
    <path d="M8.5 1L1 4.75L8.5 8.5L16 4.75L8.5 1Z" stroke="currentColor" stroke-width="2" stroke-linecap="round" stroke-linejoin="round"/>
    <path d="M1 12.25L8.5 16L16 12.25" stroke="currentColor" stroke-width="2" stroke-linecap="round" stroke-linejoin="round"/>
    <path d="M1 8.5L8.5 12.25L16 8.5" stroke="currentColor" stroke-width="2" stroke-linecap="round" stroke-linejoin="round"/>
  </symbol>
  <symbol id="like" width="18" height="18" viewBox="0 0 18 18" fill="none">
    <path d="M4.99997 16.9999H2.59999C2.17565 16.9999 1.76868 16.8313 1.46863 16.5313C1.16857 16.2312 1 15.8243 1 15.3999V9.79994C1 9.3756 1.16857 8.96864 1.46863 8.66858C1.76868 8.36852 2.17565 8.19995 2.59999 8.19995H4.99997M10.5999 6.59996V3.39998C10.5999 2.76347 10.3471 2.15302 9.897 1.70294C9.44692 1.25285 8.83647 1 8.19995 1L4.99997 8.19995V16.9999H14.0239C14.4098 17.0043 14.7842 16.869 15.0782 16.6191C15.3723 16.3692 15.566 16.0214 15.6239 15.6399L16.7279 8.43995C16.7627 8.21064 16.7472 7.9765 16.6826 7.75376C16.6179 7.53102 16.5056 7.325 16.3534 7.14997C16.2012 6.97495 16.0128 6.83511 15.8012 6.74014C15.5896 6.64517 15.3598 6.59734 15.1279 6.59996H10.5999Z" stroke="currentColor" stroke-width="2" stroke-linecap="round" stroke-linejoin="round"/>
  </symbol>
  <symbol id="swap" width="21" height="16" viewBox="0 0 21 16" fill="none">
    <path d="M10.8008 6.07715L15.0434 1.83451L19.2861 6.07715" stroke="currentColor" stroke-width="2" stroke-linecap="round" stroke-linejoin="round"/>
    <path d="M10.3564 10.749L6.11373 14.9917L1.87109 10.749" stroke="currentColor" stroke-width="2" stroke-linecap="round" stroke-linejoin="round"/>
    <path d="M6.11381 14.9917L6.11381 5.09224" stroke="currentColor" stroke-width="2" stroke-linecap="round" stroke-linejoin="round"/>
    <path d="M15.0435 11.7339L15.0435 1.83443" stroke="currentColor" stroke-width="2" stroke-linecap="round" stroke-linejoin="round"/>
  </symbol>
  <symbol id="profile" width="15" height="17" viewBox="0 0 15 17" fill="none">
    <path d="M14 15.625V14C14 13.138 13.6576 12.3114 13.0481 11.7019C12.4386 11.0924 11.612 10.75 10.75 10.75H4.25C3.38805 10.75 2.5614 11.0924 1.9519 11.7019C1.34241 12.3114 1 13.138 1 14V15.625" stroke="currentColor" stroke-width="2" stroke-linecap="round" stroke-linejoin="round"/>
    <path d="M7.5 7.5C9.29493 7.5 10.75 6.04493 10.75 4.25C10.75 2.45507 9.29493 1 7.5 1C5.70507 1 4.25 2.45507 4.25 4.25C4.25 6.04493 5.70507 7.5 7.5 7.5Z" stroke="currentColor" stroke-width="2" stroke-linecap="round" stroke-linejoin="round"/>
  </symbol>
  <symbol id="search" width="13" height="13" viewBox="0 0 13 13" fill="none">
    <path d="M5.60804 10.2161C8.15299 10.2161 10.2161 8.15299 10.2161 5.60804C10.2161 3.06309 8.15299 1 5.60804 1C3.06309 1 1 3.06309 1 5.60804C1 8.15299 3.06309 10.2161 5.60804 10.2161Z" stroke="currentColor" stroke-width="1.5" stroke-linecap="round" stroke-linejoin="round"/>
    <path d="M11.365 11.3679L8.85938 8.8623" stroke="currentColor" stroke-width="1.5" stroke-linecap="round" stroke-linejoin="round"/>
  </symbol>
  <symbol id="vertical-dots" width="4" height="16" viewBox="0 0 4 16" fill="none">
    <path d="M1.875 8.875C2.35825 8.875 2.75 8.48325 2.75 8C2.75 7.51675 2.35825 7.125 1.875 7.125C1.39175 7.125 1 7.51675 1 8C1 8.48325 1.39175 8.875 1.875 8.875Z" stroke="currentColor" stroke-width="2" stroke-linecap="round" stroke-linejoin="round"/>
    <path d="M1.875 2.75C2.35825 2.75 2.75 2.35825 2.75 1.875C2.75 1.39175 2.35825 1 1.875 1C1.39175 1 1 1.39175 1 1.875C1 2.35825 1.39175 2.75 1.875 2.75Z" stroke="currentColor" stroke-width="2" stroke-linecap="round" stroke-linejoin="round"/>
    <path d="M1.875 15C2.35825 15 2.75 14.6082 2.75 14.125C2.75 13.6418 2.35825 13.25 1.875 13.25C1.39175 13.25 1 13.6418 1 14.125C1 14.6082 1.39175 15 1.875 15Z" stroke="currentColor" stroke-width="2" stroke-linecap="round" stroke-linejoin="round"/>
  </symbol>
  <symbol id="info" width="15" height="15" viewBox="0 0 15 15" fill="none">
    <path d="M7.5 14C11.0899 14 14 11.0899 14 7.5C14 3.91015 11.0899 1 7.5 1C3.91015 1 1 3.91015 1 7.5C1 11.0899 3.91015 14 7.5 14Z" stroke="currentColor" stroke-width="1.5" stroke-linecap="round" stroke-linejoin="round"/>
    <path d="M7.5 10.1V7.5" stroke="currentColor" stroke-width="1.5" stroke-linecap="round" stroke-linejoin="round"/>
    <path d="M7.5 4.90039H7.5065" stroke="currentColor" stroke-width="1.5" stroke-linecap="round" stroke-linejoin="round"/>
  </symbol>
  <symbol id="check" width="70" height="70" viewBox="0 0 70 70" fill="none">
    <path d="M67 32.0743V35.0183C66.9961 41.9189 64.7616 48.6333 60.6299 54.1601C56.4981 59.687 50.6905 63.7302 44.0731 65.6868C37.4558 67.6433 30.3832 67.4084 23.9103 65.017C17.4374 62.6256 11.9109 58.2058 8.15507 52.4169C4.39925 46.628 2.61533 39.7801 3.06937 32.8945C3.5234 26.0089 6.19106 19.4546 10.6745 14.2089C15.1579 8.96334 21.2169 5.30754 27.9478 3.78678C34.6787 2.26603 41.7208 2.96179 48.024 5.77032" stroke="currentColor" stroke-width="6" stroke-linecap="round" stroke-linejoin="round"/>
    <path d="M66.9984 9.41895L34.9984 41.4509L25.3984 31.8509" stroke="currentColor" stroke-width="6" stroke-linecap="round" stroke-linejoin="round"/>
  </symbol>
  <symbol id="keyboard-arrow-down" width="10" height="6" viewBox="0 0 10 6" fill="none">
    <path d="M1 1L5 5L9 1" stroke="currentColor" stroke-width="2" stroke-linecap="round" stroke-linejoin="round"/>
  </symbol>
  <symbol id="attachment" width="24" height="12" viewBox="0 0 24 12" fill="none">
    <path d="M15 1H18C18.6566 1 19.3068 1.12933 19.9134 1.3806C20.52 1.63188 21.0712 2.00017 21.5355 2.46447C21.9998 2.92876 22.3681 3.47996 22.6194 4.08658C22.8707 4.69321 23 5.34339 23 6C23 6.65661 22.8707 7.30679 22.6194 7.91342C22.3681 8.52004 21.9998 9.07124 21.5355 9.53553C21.0712 9.99983 20.52 10.3681 19.9134 10.6194C19.3068 10.8707 18.6566 11 18 11H15M9 11H6C5.34339 11 4.69321 10.8707 4.08658 10.6194C3.47995 10.3681 2.92876 9.99983 2.46447 9.53553C1.52678 8.59785 1 7.32608 1 6C1 4.67392 1.52678 3.40215 2.46447 2.46447C3.40215 1.52678 4.67392 1 6 1H9" stroke="currentColor" stroke-width="2" stroke-linecap="round" stroke-linejoin="round"/>
    <path d="M8 6H16" stroke="currentColor" stroke-width="2" stroke-linecap="round" stroke-linejoin="round"/>
  </symbol>
  <symbol id="check-outlined" width="20" height="20" viewBox="0 0 20 20" fill="none">
    <circle cx="10" cy="10" r="9" stroke="currentColor" stroke-width="2"/>
    <path d="M7.5 10L9.5 12L13.1 8" stroke="currentColor" stroke-width="2" stroke-linecap="round" stroke-linejoin="round"/>
  </symbol>
</svg>
