<?xml version="1.0" encoding="UTF-8" standalone="no"?>
<!-- Generator: Adobe Illustrator 22.1.0, SVG Export Plug-In . SVG Version: 6.00 Build 0)  -->

<svg
   xmlns:dc="http://purl.org/dc/elements/1.1/"
   xmlns:cc="http://creativecommons.org/ns#"
   xmlns:rdf="http://www.w3.org/1999/02/22-rdf-syntax-ns#"
   xmlns:svg="http://www.w3.org/2000/svg"
   xmlns="http://www.w3.org/2000/svg"
   xmlns:sodipodi="http://sodipodi.sourceforge.net/DTD/sodipodi-0.dtd"
   xmlns:inkscape="http://www.inkscape.org/namespaces/inkscape"
   version="1.1"
   id="Livello_1"
   x="0px"
   y="0px"
   viewBox="0 0 236.8 53"
   xml:space="preserve"
   sodipodi:docname="logo-white.svg"
   width="236.8"
   height="53"
   inkscape:version="0.92.3 (2405546, 2018-03-11)"><metadata
   id="metadata35"><rdf:RDF><cc:Work
       rdf:about=""><dc:format>image/svg+xml</dc:format><dc:type
         rdf:resource="http://purl.org/dc/dcmitype/StillImage" /></cc:Work></rdf:RDF></metadata><defs
   id="defs33" /><sodipodi:namedview
   pagecolor="#ffffff"
   bordercolor="#666666"
   borderopacity="1"
   objecttolerance="10"
   gridtolerance="10"
   guidetolerance="10"
   inkscape:pageopacity="0"
   inkscape:pageshadow="2"
   inkscape:window-width="1853"
   inkscape:window-height="1025"
   id="namedview31"
   showgrid="false"
   inkscape:zoom="1.52"
   inkscape:cx="129.3"
   inkscape:cy="26.5"
   inkscape:window-x="67"
   inkscape:window-y="27"
   inkscape:window-maximized="1"
   inkscape:current-layer="Livello_1" />
<style
   type="text/css"
   id="style2">
	.st0{fill:#D32F2F;}
	.st1{fill:url(#SVGID_1_);}
	.st2{fill:url(#SVGID_2_);}
	.st3{fill:#FFFFFF;}
	.st4{fill:#444444;}
	.st5{fill:#D9D9D9;}
</style>
<g
   id="g28"
   style="fill:#ffffff"
   transform="translate(-20.7,-23.5)">
	<g
   id="g26"
   style="fill:#ffffff">
		<g
   id="g18"
   style="fill:#ffffff">
			<path
   class="st3"
   d="m 86.9,35.9 c 0,-0.7 0.3,-1.3 0.8,-1.8 0.5,-0.5 1.1,-0.8 1.9,-0.8 0.7,0 1.3,0.3 1.9,0.8 0.5,0.5 0.8,1.1 0.8,1.8 v 7.5 C 94.5,41.8 97,41 99.9,41 c 3.6,0 6.6,1.2 9.1,3.7 2.5,2.5 3.8,5.5 3.8,9 0,3.5 -1.3,6.5 -3.8,9 -2.5,2.5 -5.5,3.7 -9.1,3.7 -3.6,0 -6.6,-1.2 -9.1,-3.7 C 88.3,60.3 87.1,57.3 87,53.8 Z M 94.4,59 c 1.5,1.5 3.3,2.2 5.4,2.2 2.1,0 3.9,-0.7 5.4,-2.2 1.5,-1.5 2.2,-3.3 2.2,-5.3 0,-2.1 -0.7,-3.9 -2.2,-5.4 -1.5,-1.5 -3.3,-2.2 -5.4,-2.2 -2.1,0 -3.9,0.7 -5.4,2.2 -1.3,1.3 -2,2.7 -2.2,4.4 v 1 c 0,0.2 0,0.3 0,0.5 0.1,1.9 0.8,3.5 2.2,4.8 z"
   id="path4"
   style="fill:#ffffff"
   inkscape:connector-curvature="0" />
			<path
   class="st3"
   d="m 120.5,38.4 c -0.7,0 -1.3,-0.3 -1.9,-0.8 -0.5,-0.5 -0.8,-1.1 -0.8,-1.8 0,-0.7 0.3,-1.3 0.8,-1.8 0.5,-0.5 1.1,-0.8 1.9,-0.8 0.7,0 1.3,0.3 1.9,0.8 0.5,0.5 0.8,1.1 0.8,1.8 0,0.7 -0.3,1.3 -0.8,1.8 -0.5,0.5 -1.2,0.8 -1.9,0.8 z m 0,28 c -0.7,0 -1.3,-0.3 -1.9,-0.8 -0.5,-0.5 -0.8,-1.1 -0.8,-1.8 V 43.4 c 0,-0.7 0.3,-1.3 0.8,-1.8 0.5,-0.5 1.1,-0.8 1.9,-0.8 0.7,0 1.3,0.3 1.9,0.8 0.5,0.5 0.8,1.1 0.8,1.8 v 20.4 c 0,0.7 -0.3,1.3 -0.8,1.8 -0.5,0.5 -1.1,0.8 -1.9,0.8 z"
   id="path6"
   style="fill:#ffffff"
   inkscape:connector-curvature="0" />
			<path
   class="st3"
   d="M 134.3,40.8 V 36 c 0,-0.7 0.3,-1.3 0.8,-1.8 0.5,-0.5 1.1,-0.8 1.9,-0.8 0.7,0 1.3,0.3 1.9,0.8 0.5,0.5 0.8,1.1 0.8,1.8 v 4.8 h 2.9 c 0.7,0 1.3,0.3 1.9,0.8 0.5,0.5 0.8,1.1 0.8,1.8 0,0.7 -0.3,1.3 -0.8,1.8 -0.5,0.5 -1.1,0.8 -1.9,0.8 h -2.9 v 17.7 c 0,0.7 -0.3,1.3 -0.8,1.8 -0.5,0.5 -1.1,0.8 -1.9,0.8 -0.7,0 -1.3,-0.3 -1.9,-0.8 -0.5,-0.5 -0.8,-1.1 -0.8,-1.8 V 46 h -3 c -0.7,0 -1.3,-0.3 -1.9,-0.8 -0.5,-0.5 -0.8,-1.1 -0.8,-1.8 0,-0.7 0.3,-1.3 0.8,-1.8 0.5,-0.5 1.1,-0.8 1.9,-0.8 z"
   id="path8"
   style="fill:#ffffff"
   inkscape:connector-curvature="0" />
			<path
   class="st3"
   d="m 155.6,40.9 c 0.7,0 1.3,0.2 1.8,0.7 0.5,0.5 0.7,1.1 0.7,1.8 0,0.7 -0.2,1.3 -0.7,1.8 -0.5,0.5 -1.1,0.8 -1.8,0.8 -0.4,0 -0.7,0.1 -0.9,0.4 -0.2,0.2 -0.4,0.5 -0.4,0.9 0,0.4 0.1,0.7 0.4,0.9 0.2,0.2 0.6,0.4 0.9,0.4 2.5,0 4.6,0.9 6.4,2.6 1.8,1.7 2.6,3.8 2.6,6.3 0,2.5 -0.9,4.6 -2.6,6.3 -1.8,1.7 -3.9,2.6 -6.4,2.6 -2.5,0 -4.6,-0.9 -6.4,-2.6 -1.8,-1.7 -2.6,-3.8 -2.6,-6.3 0,-0.7 0.3,-1.3 0.8,-1.8 0.5,-0.5 1.1,-0.7 1.8,-0.7 0.7,0 1.3,0.2 1.8,0.7 0.5,0.5 0.7,1.1 0.7,1.8 0,1.1 0.4,2 1.1,2.7 0.7,0.7 1.7,1.1 2.7,1.1 1.1,0 2,-0.4 2.7,-1.1 0.8,-0.7 1.1,-1.6 1.1,-2.7 0,-1.1 -0.4,-2 -1.1,-2.7 -0.8,-0.7 -1.7,-1.1 -2.7,-1.1 -1.8,0 -3.3,-0.6 -4.6,-1.9 -1.3,-1.2 -1.9,-2.7 -1.9,-4.5 0,-1.8 0.6,-3.3 1.9,-4.5 1.4,-1.3 2.9,-1.9 4.7,-1.9 z"
   id="path10"
   style="fill:#ffffff"
   inkscape:connector-curvature="0" />
			<path
   class="st3"
   d="m 191.8,44.6 c 2.5,2.5 3.8,5.5 3.8,9 0,3.5 -1.3,6.5 -3.8,9 -2.5,2.5 -5.5,3.7 -9.1,3.7 -3.6,0 -6.6,-1.2 -9.1,-3.7 -2.5,-2.5 -3.8,-5.5 -3.8,-9 0,-3.5 1.3,-6.5 3.8,-9 2.5,-2.5 5.5,-3.7 9.1,-3.7 3.5,0 6.5,1.3 9.1,3.7 z m -9.1,1.5 c -2.1,0 -3.9,0.7 -5.4,2.2 -1.5,1.5 -2.2,3.3 -2.2,5.3 0,2.1 0.7,3.9 2.2,5.4 1.5,1.5 3.3,2.2 5.4,2.2 2.1,0 3.9,-0.7 5.4,-2.2 1.5,-1.5 2.2,-3.3 2.2,-5.4 0,-2.1 -0.7,-3.9 -2.2,-5.3 -1.5,-1.5 -3.3,-2.2 -5.4,-2.2 z"
   id="path12"
   style="fill:#ffffff"
   inkscape:connector-curvature="0" />
			<path
   class="st3"
   d="m 213.9,40.9 c 3.6,0.2 6.6,1.5 8.9,3.8 2.5,2.4 3.7,5.4 3.8,8.9 v 9.8 c 0,1 -0.3,1.7 -0.8,2.2 -0.5,0.5 -1.1,0.8 -1.9,0.8 -0.7,0 -1.3,-0.3 -1.9,-0.8 -0.5,-0.5 -0.8,-1.2 -0.8,-2.2 v -9.8 c 0,-0.2 0,-0.3 0,-0.5 -0.1,-1.9 -0.8,-3.5 -2.2,-4.8 -1.5,-1.5 -3.3,-2.2 -5.4,-2.2 h -0.1 c -2.1,0 -3.9,0.7 -5.4,2.2 -1.4,1.3 -2.1,2.9 -2.2,4.8 0,0.2 0,0.3 0,0.5 v 9.8 c 0,1 -0.3,1.7 -0.8,2.2 -0.5,0.5 -1.1,0.8 -1.9,0.8 -0.7,0 -1.3,-0.3 -1.9,-0.8 -0.5,-0.5 -0.8,-1.3 -0.8,-2.2 v -9.8 c 0,-3.5 1.3,-6.4 3.8,-8.9 2.3,-2.3 5.3,-3.6 8.9,-3.8 z"
   id="path14"
   style="fill:#ffffff"
   inkscape:connector-curvature="0" />
			<path
   class="st3"
   d="m 252.2,63.9 c -2.2,1.6 -4.7,2.4 -7.6,2.4 -3.6,0 -6.6,-1.2 -9.1,-3.7 -2.5,-2.5 -3.8,-5.5 -3.8,-9 0,-3.5 1.3,-6.5 3.8,-9 2.5,-2.5 5.5,-3.7 9.1,-3.7 3.6,0 6.6,1.2 9.1,3.7 2.5,2.5 3.8,5.5 3.8,9 v 0 10.1 c 0,0.1 0,0.3 0,0.4 -0.1,3.4 -1.3,6.3 -3.8,8.7 -2.5,2.5 -5.5,3.7 -9.1,3.7 h -0.1 c -0.7,0 -1.3,-0.3 -1.9,-0.8 -0.6,-0.5 -0.8,-1.1 -0.8,-1.8 0,-0.7 0.3,-1.3 0.8,-1.8 0.5,-0.5 1.1,-0.8 1.9,-0.8 0.1,0 0.2,0 0.4,0 2,-0.1 3.7,-0.8 5.2,-2.2 1.4,-1.4 2.1,-3.2 2.1,-5.2 z M 244.6,46 c -2.1,0 -3.9,0.7 -5.4,2.2 -1.5,1.5 -2.2,3.3 -2.2,5.3 0,2.1 0.7,3.9 2.2,5.4 1.5,1.5 3.3,2.2 5.4,2.2 2.1,0 3.9,-0.7 5.4,-2.2 1.5,-1.5 2.2,-3.3 2.2,-5.4 0,-2.1 -0.7,-3.9 -2.2,-5.3 -1.5,-1.4 -3.3,-2.2 -5.4,-2.2 z"
   id="path16"
   style="fill:#ffffff"
   inkscape:connector-curvature="0" />
		</g>
		<g
   id="g24"
   style="fill:#ffffff">
			<g
   id="g22"
   style="fill:#ffffff">
				<path
   class="st3"
   d="m 47.3,23.5 c -2,0 -4,0.2 -6,0.7 0,0.1 0,0.2 0,0.3 V 57 c 0,0.7 -0.6,1.2 -1.2,1.2 h -2.4 c -0.5,0 -0.9,-0.4 -0.9,-0.9 V 25.6 C 27.3,29.6 20.7,39 20.7,49.8 20.7,64.4 32.6,76.2 47.4,76.2 62.2,76.2 74,64.4 74,49.9 74,35.4 62,23.5 47.3,23.5 Z m -0.5,37.3 c 0,0.6 -0.5,1.1 -1.1,1.1 h -2.4 c -0.6,0 -1.1,-0.5 -1.1,-1.1 V 44.1 c 0,-0.6 0.5,-1.1 1.1,-1.1 h 2.4 c 0.6,0 1.1,0.5 1.1,1.1 z m 5.4,1.6 c 0,0.6 -0.5,1.1 -1.1,1.1 h -2.4 c -0.6,0 -1.1,-0.5 -1.1,-1.1 V 42.5 c 0,-0.6 0.5,-1.1 1.1,-1.1 h 2.4 c 0.6,0 1.1,0.5 1.1,1.1 z m 5.4,-3 c 0,0.6 -0.5,1.1 -1.1,1.1 H 54.1 C 53.5,60.5 53,60 53,59.4 V 45.7 c 0,-0.6 0.5,-1.1 1.1,-1.1 h 2.4 c 0.6,0 1.1,0.5 1.1,1.1 z"
   id="path20"
   style="fill:#ffffff"
   inkscape:connector-curvature="0" />
			</g>
		</g>
	</g>
</g>
</svg>